<?xml version="1.0" encoding="utf-8"?>
<svg width="100px" height="100px" viewBox="0 0 100 100" version="1.1" xmlns:xlink="http://www.w3.org/1999/xlink" xmlns="http://www.w3.org/2000/svg">
  <defs>
    <path d="M0 0L100 0L100 100L0 100L0 0Z" id="path_1" />
    <clipPath id="mask_1">
      <use xlink:href="#path_1" />
    </clipPath>
  </defs>
  <g id="web_FILL0_wght400_GRAD0_opsz24">
    <path d="M0 0L100 0L100 100L0 100L0 0Z" id="Background" fill="#FFFFFF" fill-opacity="0" fill-rule="evenodd" stroke="none" />
    <path d="M16.6667 83.3333C14.375 83.3333 12.4132 82.5174 10.7813 80.8854C9.14931 79.2535 8.33333 77.2917 8.33333 75L8.33333 25C8.33333 22.7083 9.14931 20.7465 10.7813 19.1146C12.4132 17.4826 14.375 16.6667 16.6667 16.6667L83.3333 16.6667C85.625 16.6667 87.5868 17.4826 89.2188 19.1146C90.8507 20.7465 91.6667 22.7083 91.6667 25L91.6667 75C91.6667 77.2917 90.8507 79.2535 89.2188 80.8854C87.5868 82.5174 85.625 83.3333 83.3333 83.3333L16.6667 83.3333L16.6667 83.3333ZM16.6667 75L60.4167 75L60.4167 60.4167L16.6667 60.4167L16.6667 75L16.6667 75ZM68.75 75L83.3333 75L83.3333 37.5L68.75 37.5L68.75 75L68.75 75ZM16.6667 52.0833L60.4167 52.0833L60.4167 37.5L16.6667 37.5L16.6667 52.0833L16.6667 52.0833Z" id="Shape" fill="#FFFFFF" fill-rule="evenodd" stroke="none" />
  </g>
</svg>